<svg width="1024" height="1024">

	<path d="M122.4168,940.3168 Q123.142,939.9435 125.3776,938.7853 Q127.1353,937.8669 128.0319,937.3959 Q128.0558,937.3833 130.3571,936.1663 Q131.9846,935.2988 137.1145,932.5284 Q138.1583,931.9581 146.6905,927.2161 Q149.1029,925.8502 152.7033,923.792 Q153.4294,923.3741 160.1719,919.4501 Q161.9016,918.4312 162.6274,918.0023 Q169.5216,913.8858 171.1904,912.8784 Q183.0292,905.6188 183.1895,905.5192 Q186.573,903.4094 187.1796,903.0296 Q193.1,899.2998 196.2135,897.3221 Q197.7349,896.3517 198.78,895.6838 Q200.7625,894.4135 211.2579,887.6227 Q220.2005,881.7577 222.0102,880.5627 Q224.024,879.2301 233.7301,872.7661 Q234.3843,872.3282 241.0201,867.8709 Q242.4303,866.9204 248.7778,862.6288 Q253.6388,859.3288 255.5113,858.0548 Q274.5048,845.058 276.7507,843.514 Q280.2525,841.1042 280.5804,840.8785 Q280.2294,840.2593 280.2256,840.2522 Q280.2233,840.2476 280.0964,839.994 Q279.9769,839.7367 279.8591,839.4622 Q279.679,838.9913 279.6293,838.848 Q279.6155,838.8066 279.3908,838.0341 Q279.2893,837.5901 279.2773,837.531 Q279.2606,837.4468 279.2386,837.3301 Q279.2288,837.2761 279.1093,836.4359 Q279.0939,836.2844 279.0424,835.5027 Q279.0357,835.276 279.0332,834.7748 Q279.0396,834.4721 279.064,833.9475 Q279.1855,832.6931 279.2211,832.4318 Q279.225,832.4044 279.321,831.8004 Q279.4542,831.0946 279.4852,830.9451 Q279.5518,830.6382 279.6188,830.3455 Q279.7671,829.7443 280.0062,828.8716 Q280.0453,828.7375 280.3962,827.6148 Q280.6273,826.9368 280.9683,826.0005 Q281.352,825.0167 281.3672,824.9792 Q281.7427,824.0734 281.8225,823.8869 Q282.0475,823.3701 282.0802,823.2964 Q282.3088,822.7867 282.8274,821.6725 Q283.2931,820.7141 283.4543,820.3901 Q283.9354,819.4451 284.5713,818.2386 Q285.631,816.3164 285.8993,815.8445 Q286.5738,814.6804 287.1027,813.7877 Q287.2794,813.4932 288.9014,810.8623 Q289.3497,810.1555 290.2418,808.7719 Q290.4435,808.463 290.7731,807.9608 Q291.3449,807.0978 292.3467,805.6085 Q294.3102,802.7619 294.4107,802.6185 Q294.4843,802.5136 295.3667,801.2643 Q296.7943,799.2734 297.9737,797.6537 Q298.6716,796.7051 299.1653,796.0381 Q299.266,795.9025 301.2522,793.2531 Q302.5058,791.604 303.5342,790.2637 Q308.8311,783.507 309.4793,782.6948 Q310.3609,781.5948 312.0523,779.498 Q312.5279,778.9114 315.5702,775.189 Q317.3486,773.0345 317.7451,772.5563 Q321.2387,768.3705 321.5496,768.0004 Q321.5494,768.0005 321.5494,768.0005 Q321.5494,768.0005 321.5494,768.0005 Q321.5494,768.0005 321.5494,768.0005 Q321.5493,768.0006 321.5493,768.0006 Q307.4548,780.8401 299.6921,787.8915 Q295.1843,791.9785 294.439,792.6538 Q288.2218,798.2794 284.918,801.2639 Q272.0892,812.8154 268.581,815.9631 Q261.2508,822.5229 255.0211,828.078 Q251.4508,831.2529 248.7619,833.6395 Q243.3227,838.4549 235.9028,844.9952 Q233.8694,846.7814 232.9644,847.5754 Q232.9644,847.5754 232.9644,847.5754 Q225.1209,854.4335 223.6473,855.7169 Q221.8134,857.3119 210.8439,866.7943 Q207.364,869.7805 205.5858,871.3019 Q202.4543,873.9739 199.7395,876.2825 Q197.9351,877.8126 194.1466,881.0141 Q193.6668,881.4184 191.2717,883.433 Q190.2991,884.2491 188.1444,886.0535 Q183.1474,890.217 181.1532,891.8702 Q179.3876,893.3297 173.9368,897.8108 Q173.1317,898.4695 171.2484,900.007 Q168.0352,902.6199 163.7927,906.0497 Q163.7386,906.0934 162.4211,907.154 Q153.004,914.681 150.492,916.6765 Q145.3504,920.7557 142.6362,922.9127 Q136.2682,928.0233 135.9846,928.2538 Q134.4965,929.4701 133.9056,929.9564 Q131.0204,932.3682 130.9466,932.4308 Q128.7566,934.3186 128.1679,934.8372 Q127.9256,935.0521 125.8582,936.9317 Q124.7569,937.9731 124.5695,938.1537 Q124.2603,938.454 124.0817,938.6289 Q123.9604,938.7484 122.4167,940.3168"/>



</svg>