<svg width="1024" height="1024">

	<path d="M3.051758E-05,992.5034 Q0.1676178,992.4378 1.218063,992.0244 Q4.08049,990.8839 6.222153,990.0169 Q8.969284,988.8881 9.373123,988.7206 Q15.62808,986.0752 15.82115,985.992 Q15.96826,985.9286 19.84296,984.2397 Q21.72101,983.4083 24.29356,982.2565 Q29.69922,979.787 30.48708,979.4216 Q31.6443,978.8826 31.73343,978.8409 Q42.53619,973.6684 42.70674,973.5848 Q43.42743,973.2308 44.00005,972.9489 Q45.9673,971.9752 49.57793,970.1682 Q52.28543,968.7966 53.57703,968.1375 Q57.11357,966.3167 58.97038,965.3514 Q62.47934,963.5107 63.98056,962.7166 Q65.94762,961.6702 66.02684,961.6279 Q67.55382,960.8109 71.17357,958.8585 Q73.49704,957.5941 75.27393,956.6212 Q79.27423,954.4131 79.3092,954.3937 Q81.54779,953.1472 85.15927,951.1207 Q86.00343,950.6443 94.21841,945.9561 Q96.86191,944.4281 99.06035,943.1505 Q100.587,942.2596 105.2221,939.5374 Q106.9347,938.525 117.0319,932.4883 Q120.2906,930.5165 123.7281,928.4247 Q124.3477,928.0465 129.561,924.849 Q133.4845,922.4259 134.0184,922.0952 Q144.4753,915.5677 145.2835,915.0594 Q145.7902,914.7407 157.01,907.632 Q158.8978,906.4274 163.9519,903.1912 Q164.7082,902.7055 170.4465,899.0101 Q172.0103,897.9999 183.3687,890.6245 Q187.495,887.9304 193.625,883.9151 Q198.7766,880.5302 207.0334,875.0869 Q210.058,873.0883 216.3726,868.9084 Q218.2312,867.6766 223.4604,864.2073 Q259.6927,840.1089 263.2744,837.7283 Q272.4096,831.6642 286.0139,822.6636 Q290.9971,819.3789 300.0094,813.459 Q306.5518,809.1809 307.5386,808.5372 Q314.3719,804.092 317.9224,801.7915 Q319.2048,800.9622 330.6008,793.6337 Q332.5925,792.3611 334.507,791.1403 Q336.5796,789.8214 337.8466,789.0166 Q349.6032,781.6062 349.6158,781.5983 Q349.652,781.5756 353.3605,779.2611 Q358.0114,776.3753 361.0338,774.5106 Q364.6986,772.2612 366.4778,771.1739 Q371.1437,768.338 371.7023,768 Q992.7334,992.3552 994.7959,990.9969 Q995.8307,990.2968 997.1227,989.4045 Q1008.581,980.5613 1008.597,980.548 Q1008.782,980.3903 1009.538,979.7424 Q1009.577,979.7086 1009.738,979.5694 Q1010.614,978.806 1011.907,977.6586 Q1013.354,976.3463 1013.675,976.0511 Q1014.444,975.3367 1015.105,974.7158 Q1015.699,974.1523 1016.076,973.7923 Q1016.262,973.6136 1016.775,973.1182 Q1017.815,972.1013 1018.189,971.7315 Q1019.142,970.7791 1020.743,969.1471 Q1021.51,968.3513 1022.829,966.9599 Q1023.385,966.3655 1024,965.7016 Q1024,965.7015 9.155273E-05,965.7013 Q0.308197,965.3665 1.151489,964.4418 Q3.555237,961.7418 3.62558,961.6613 Q5.107117,959.9474 5.214752,959.8215 Q5.790466,959.1444 6.763824,957.9869 Q6.962708,957.7484 8.018829,956.4706 Q8.122955,956.3437 9.965118,954.0659 Q10.66766,953.1819 11.59042,952.0078 Q13.48093,949.5563 13.66537,949.3137 Q15.69226,946.6099 16.08578,946.0767 Q17.8425,943.6633 18.44485,942.8235 Q19.42514,941.4431 19.89771,940.7717 Q20.17123,940.3814 21.35828,938.6723 Q23.03696,936.2139 23.37354,935.7151 Q25.74033,932.1531 26.1813,931.4791 Q26.3624,931.2012 27.673,929.1742 Q28.90524,927.2422 29.19965,926.7769 Q29.94199,925.5974 30.77939,924.2559 Q30.85977,924.1265 31.48923,923.1099 Q33.60086,919.6528 34.20624,918.6488 Q34.91214,917.4708 35.93304,915.7535 Q38.51938,911.3329 39.05069,910.4127 Q41.22296,906.6081 41.26096,906.541 Q44.17429,901.336 44.42776,900.8779 Q44.68491,900.4124 44.73279,900.3255 Q47.40375,895.4399 47.58356,895.108 Q48.74182,892.961 49.24579,892.022 Q50.42511,889.8143 50.4581,889.7523 Q53.81406,883.3922 55.23276,880.6725 Q56.31131,878.5936 57.00214,877.2573 Q59.3356,872.7186 62.47733,866.5554 Q64.7124,862.1421 66.7005,858.2018 Q68.30954,855.0059 76.19101,839.3368 Q83.22205,825.4953 83.23019,825.4792 Q85.16785,821.7133 87.23318,817.7297 Q87.77136,816.6974 89.18149,814.0048 Q90.86301,810.8181 91.22491,810.1358 Q91.43616,809.7383 95.07352,802.9679 Q99.10117,795.654 99.47906,794.9784 Q100.1678,793.7523 100.8555,792.5344 Q100.9973,792.284 102.8199,789.0919 Q109.7044,777.4849 109.9424,777.0972 Q110.274,776.5582 110.378,776.3896 Q110.7211,775.8345 111.8253,774.0615 Q115.207,768.7599 115.7023,768.0001 Q115.7024,768.0001 992.5034,0 Q990.1587,1018.126 989.8769,1017.435 Q989.6791,1016.951 989.2067,1015.802 Q987.6825,1012.146 987.2163,1011.042 Q987.015,1010.568 986.6014,1009.598 Q985.0721,1006.057 985.0223,1005.942 Q984.5193,1004.793 983.5569,1002.613 Q981.9427,999.0116 981.3809,997.7733 Q980.4876,995.8199 979.5381,993.7637 Q979.4785,993.6353 978.248,991.0015 Q977.9532,990.3753 975.03,984.2585 Q974.7472,983.6754 971.1633,976.4042 Q970.1416,974.3694 969.0569,972.2263 Q967.7698,969.7052 966.0048,966.2853 Q962.9622,960.4828 962.6546,959.9025 Q962.0792,958.8196 958.0228,951.2891 Q957.8401,950.9539 954.9656,945.7225 Q953.5712,943.212 952.0649,940.519 Q948.4536,934.1375 947.4165,932.3234 Q947.2188,931.9783 943.9738,926.3552 Q943.6035,925.7179 941.3352,921.8339 Q940.525,920.4542 936.2443,913.2278 Q930.1984,903.1853 929.537,902.0973 Q928.5641,900.5002 926.0131,896.332 Q925.1321,894.8988 916.8307,881.5369 Q916.5803,881.1376 909.6003,870.0826 Q907.5896,866.9233 904.7662,862.5046 Q899.013,853.558 897.6545,851.4555 Q894.3704,846.3879 893.3577,844.8292 Q892.4013,843.3589 890.0928,839.8161 Q885.8499,833.3259 881.8707,827.262 Q880.089,824.553 870.8736,810.5945 Q869.6575,808.758 868.7634,807.4086 Q849.8696,778.9779 845.5988,772.5603 Q828.3382,746.5706 825.7708,742.6899 Q816.9589,729.3239 816.3622,728.4158 Q816.3302,728.3671 808.1036,715.7962 Q808.0449,715.7063 804.3352,710.0027 Q798.0664,700.3063 796.502,697.8737 Q783.5677,677.5253 783.5146,677.4407 Q782.2235,675.3828 781.0906,673.5724 Q779.3499,670.7819 775.9914,665.3674 Q775.1989,664.0834 773.4047,661.167 Q770.1579,655.8547 768.0001,652.2977 Q31.49657,992.5035 31.49658,992.5035 Q31.52414,992.5463 32.07642,993.3968 Q32.57901,994.16 32.83397,994.5431 Q33.30069,995.238 34.09836,996.4064 Q34.35536,996.7778 35.17993,997.9535 Q36.68044,1000.033 36.97014,1000.426 Q37.9334,1001.715 38.26495,1002.151 Q40.07941,1004.487 40.36261,1004.843 Q40.72015,1005.29 41.09477,1005.754 Q44.38002,1009.68 44.42415,1009.731 Q47.86009,1013.578 47.9391,1013.664 Q47.98695,1013.716 49.05035,1014.857 Q49.85811,1015.71 50.69197,1016.578 Q51.04648,1016.944 52.1709,1018.09 Q55.21588,1021.094 55.25142,1021.128 Q56.35872,1022.187 57.04451,1022.833 Q58.00035,1023.724 58.29842,1024 Q58.29851,1024 58.2988,9.155273E-05 Q60.35674,1.871338 60.4064,1.915924 Q61.26897,2.684387 61.45422,2.848358 Q61.77101,3.127747 62.38391,3.665131 Q62.85258,4.073181 64.70398,5.661926 Q64.80255,5.745514 65.90373,6.672424 Q66.2498,6.961182 69.13483,9.324097 Q70.18546,10.16565 70.59288,10.48932 Q72.83449,12.24533 73.60643,12.84055 Q74.98283,13.89032 77.02951,15.42493 Q80.25856,17.78619 80.41045,17.89557 Q82.03035,19.05255 83.37523,20.00076 Q84.16739,20.55423 85.09825,21.19986 Q85.5743,21.52814 86.10248,21.8909 Q87.17238,22.62094 88.37857,23.43655 Q88.94067,23.81409 92.08293,25.89499 Q93.93797,27.10123 94.52475,27.47946 Q97.31746,29.25925 98.66702,30.10757 Q104.8429,33.90015 105.3777,34.22214 Q107.3195,35.38315 107.5357,35.51166 Q108.203,35.90729 118.4939,41.84525 Q121.7162,43.64838 123.7978,44.80078 Q125.5369,45.75659 127.103,46.61212 Q132.1081,49.31549 132.7588,49.66373 Q134.3236,50.49847 138.9106,52.92398 Q149.0926,58.21271 149.6754,58.51212 Q152.6024,60.01138 154.8643,61.16528 Q167.0878,67.35007 169.0471,68.33615 Q186.6531,77.19531 188.5754,78.16724 Q192.3051,80.0582 192.8096,80.31464 Q194.0737,80.95789 197.544,82.7298 Q197.5798,82.74817 222.6942,95.97916 Q223.5701,96.45856 225.5783,97.56369 Q227.9981,98.90695 229.4535,99.72119 Q231.954,101.1323 234.1542,102.3871 Q234.4932,102.5815 237.3713,104.2456 Q239.762,105.6464 241.0267,106.3946 Q245.1577,108.8758 246.3477,109.6018 Q247.9862,110.6102 249.7019,111.6772 Q250.3171,112.0628 251.1884,112.6115 Q254.9879,115.0433 256,115.7023"/>



</svg>