<svg width="1024" height="1024">

	<path d="M381.8525,197.7961 Q382.358,197.3497 383.243,196.5811 Q383.3972,196.4489 384.3491,195.643 Q385.8744,194.3893 385.9575,194.3224 Q386.1979,194.1293 386.3793,193.9844 Q386.6874,193.7397 387.2028,193.3345 Q387.4333,193.1549 390.5184,190.8474 Q390.5699,190.8104 392.0724,189.7516 Q392.8201,189.2401 392.8281,189.2347 Q392.8311,189.2326 393.1107,189.0439 Q396.7775,186.699 396.9884,186.5714 Q397.1662,186.4644 401.7332,183.9082 Q402.9908,183.2692 403.5802,182.9794 Q403.7103,182.9162 403.8997,182.8248 Q403.9874,182.7828 406.514,181.6298 Q406.8686,181.4773 407.1911,181.3406 Q407.4473,181.2334 409.173,180.5427 Q409.1995,180.5326 411.5736,179.6756 Q411.679,179.6401 412.9056,179.2427 Q413.0023,179.2126 415.3562,178.5392 Q415.658,178.4612 417.748,177.9738 Q418.1565,177.8897 419.907,177.572 Q419.9092,177.5717 420.7827,177.4399 Q420.7829,177.4398 422.1324,177.2726 Q422.2101,177.2643 423.1174,177.1794 Q423.2375,177.1697 426.1076,177.0557 Q429.2591,177.2122 429.2683,177.2132 Q429.3972,177.2266 429.4757,177.235 Q433.7213,178.0388 433.7701,178.0524 Q436.2378,178.8944 436.2386,178.8947 Q436.3835,178.9543 436.3917,178.9576 Q438.9803,180.2455 439.0277,180.2734 Q439.8376,180.7784 440.0313,180.9073 Q440.424,181.179 440.6626,181.3509 Q440.8452,181.4863 441.354,181.881 Q441.8097,182.2583 441.8947,182.3314 Q441.9039,182.3392 442.8904,183.2534 Q442.9547,183.3176 443.0396,183.4032 Q444.7418,185.3737 444.8028,185.4548 Q444.8323,185.4943 445.0993,185.8613 Q445.2398,186.0615 445.4264,186.3352 Q445.4264,186.3353 447.2235,189.5909 Q447.249,189.6478 449.1819,196.1926 Q449.1674,196.1176 449.1533,196.045 Q449.1523,196.0402 448.7625,193.4908 Q448.7624,193.4902 448.5532,190.8055 Q448.5526,190.7914 448.5494,187.14 Q448.5753,186.5608 448.6168,185.8428 Q448.662,185.2037 448.6777,185.0043 Q448.7169,184.5442 448.819,183.5087 Q449.1613,180.8856 449.1703,180.8265 Q449.2682,180.2071 449.3314,179.8269 Q449.4239,179.293 449.5018,178.8618 Q449.5604,178.5471 449.8721,176.989 Q450.1175,175.8706 450.2856,175.1463 Q450.3057,175.0618 450.4936,174.29 Q451.0673,172.108 451.0839,172.0481 Q451.1409,171.8434 451.3059,171.2624 Q451.8255,169.5195 451.8903,169.3104 Q452.1431,168.5098 452.3631,167.8319 Q452.8356,166.4276 453.1264,165.5943 Q453.269,165.1938 453.3385,165.0001 Q453.3392,164.9981 453.4775,164.6165 Q453.7814,163.7924 454.6791,161.4642 Q455.123,160.3638 455.6454,159.106 Q455.8516,158.6201 455.867,158.5839 Q455.9263,158.4454 459.5253,150.7126 Q459.9016,149.9675 460.1342,149.5117 Q460.1971,149.3891 463.1676,143.8691 Q463.6866,142.9528 465.412,139.994 Q465.7521,139.4255 466.3307,138.4686 Q466.5849,138.0523 467.067,137.2693 Q467.8993,135.937 467.9421,135.8691 Q468.028,135.7332 468.1599,135.5247 Q468.2982,135.3068 468.868,134.4156 Q469.0335,134.1588 469.8718,132.8707 Q472.0207,129.6624 472.2269,129.3613 Q473.3972,127.6727 473.9881,126.833 Q474.847,125.6276 475.5499,124.6537 Q476.4822,123.379 476.6411,123.1637 Q476.7971,122.9528 480.6928,117.8454 Q480.9973,117.4585 481.6235,116.6679 Q482.3688,115.7361 484.0953,113.6141 Q484.4959,113.1289 487.3471,109.7487 Q488.4989,108.4182 488.7527,108.1277 Q489.6842,107.0694 490.4625,106.1945 Q491.778,104.7349 492.083,104.3999 Q493.0526,103.343 493.9118,102.4169 Q494.4376,101.8549 495.5408,100.6871 Q495.7663,100.4503 502.5172,93.64496 Q503.3771,92.81604 506.2866,90.07196 Q508.2693,88.25433 509.3206,87.30762 Q510.4341,86.31732 510.992,85.82593 Q511.3832,85.4834 512,84.94641 Q512,84.94641 512.0001,84.94647 Q512,84.94611 512,84.94611 Q510.4455,86.25604 510.0314,86.60077 Q506.1266,89.7663 506.0812,89.80225 Q504.4104,91.10779 503.912,91.49158 Q502.985,92.19843 501.9827,92.95233 Q501.5382,93.28326 500.4943,94.05206 Q499.7858,94.56714 497.8643,95.93616 Q491.4749,100.1882 491.245,100.3323 Q485.596,103.6691 485.5847,103.6754 Q484.4064,104.3202 483.9903,104.5435 Q482.9082,105.1134 482.6384,105.2531 Q481.7155,105.7233 480.0849,106.5251 Q477.7296,107.6164 477.6543,107.65 Q477.4506,107.7403 476.4708,108.1661 Q476.3886,108.2012 475.9842,108.3721 Q475.8334,108.4352 474.7676,108.8713 Q473.8984,109.2136 472.5957,109.7039 Q471.4064,110.127 470.3449,110.4843 Q470.3235,110.4913 465.3115,111.9014 Q465.3057,111.9027 464.2429,112.1393 Q464.0037,112.1894 463.6768,112.2559 Q463.6737,112.2565 462.5835,112.4619 Q461.2971,112.6709 461.0102,112.7125 Q450.0007,112.6655 449.9597,112.6583 Q443.225,110.5107 443.2231,110.5097 Q442.6405,110.218 442.5573,110.1747 Q442.3668,110.074 441.4306,109.546 Q441.2314,109.4263 441.1978,109.4059 Q440.8001,109.1579 440.2703,108.8102 Q439.9455,108.5869 439.6648,108.3873 Q439.3063,108.1236 439.2466,108.0787 Q438.5707,107.5491 438.4971,107.489 Q438.1136,107.1682 437.7438,106.8459 Q437.434,106.5657 437.2791,106.4221 Q437.2226,106.3691 437.0634,106.2179 Q437.043,106.1983 436.2964,105.4511 Q435.8471,104.9706 435.7843,104.9014 Q435.4522,104.5274 435.2856,104.3344 Q435.1033,104.1188 433.8739,102.538 Q433.6415,102.2116 432.8563,101.0355 Q431.968,99.54865 431.9112,99.44702 Q431.868,99.36926 431.0203,97.73877 Q430.7457,97.16309 430.7138,97.09442 Q430.2132,95.96826 430.013,95.48962 Q429.3813,93.854 429.339,93.73718 Q429.2596,93.51447 428.9588,92.63525 Q428.719,91.88995 428.455,91.01648 Q428.3756,90.74176 428.0088,89.38983 Q427.9853,89.29816 427.9702,89.23907 Q427.7733,88.43854 427.608,87.72296 Q427.2751,86.13721 427.2012,85.75305 Q427.1407,85.42865 427.0539,84.94611 Q427.0536,84.94635 427.0536,84.94641 Q427.0933,85.14758 427.2897,86.19916 Q427.448,87.1261 427.5217,87.58746 Q427.6617,88.52765 427.8315,89.81042 Q427.8361,89.84851 427.9266,90.62341 Q427.9567,90.8985 428.0286,91.60016 Q428.0623,91.95502 428.2289,94.07605 Q427.0583,115.289 427.0562,115.3024 Q426.6756,117.5125 426.6613,117.5909 Q426.1141,120.3917 426.0977,120.4706 Q425.9793,121.0319 425.7714,121.9873 Q425.6612,122.4796 424.6503,126.6246 Q424.6003,126.815 424.532,127.0734 Q424.4445,127.4016 424.2882,127.9787 Q423.8639,129.497 423.5678,130.5172 Q423.3932,131.1055 423.3533,131.2383 Q423.236,131.6266 423.1064,132.0509 Q423.0993,132.0738 422.8092,133.0055 Q422.5002,133.973 421.8172,136.0306 Q421.4757,137.0217 420.83,138.8339 Q420.8059,138.9001 420.449,139.8687 Q420.4325,139.9129 418.2686,145.3801 Q418.2681,145.3811 417.231,147.7979 Q417.2308,147.7983 413.8885,154.9041 Q409.1666,163.6153 409.0446,163.824 Q408.6819,164.4401 408.5491,164.6641 Q407.8849,165.7718 407.2119,166.8734 Q406.5567,167.9269 406.5416,167.951 Q404.7516,170.7364 404.4455,171.2 Q403.4662,172.6593 403.1255,173.1589 Q402.689,173.7927 400.6668,176.6432 Q400.4549,176.9342 399.0836,178.7822 Q398.913,179.0081 398.5418,179.4964 Q397.2024,181.2247 396.4392,182.1863 Q396.3946,182.2421 391.4175,188.126 Q391.1558,188.4181 391.0869,188.4948 Q391.0842,188.4977 390.9414,188.6561 Q390.9413,188.6562 390.6623,188.9644 Q388.9928,190.7699 388.4604,191.3322 Q388.46,191.3326 385.9895,193.8585 Q385.9124,193.9352 385.1968,194.6408 Q384.3357,195.4754 383.7911,195.9951 Q383.7022,196.0795 381.8524,197.7959"/>



</svg>