<svg width="1024" height="1024">

	<path d="M50.9216,870.5392 Q50.95072,870.5247 51.43443,870.2854 Q51.52577,870.2407 52.16459,869.9327 Q53.73684,869.2059 54.28497,868.9624 Q54.29272,868.959 55.62116,868.3885 Q55.94586,868.2532 56.90732,867.8612 Q56.95152,867.8435 59.24968,866.9586 Q59.3269,866.9301 59.79807,866.7574 Q60.02284,866.676 64.75088,865.0944 Q64.79175,865.0817 66.39756,864.5977 Q67.57717,864.2576 68.7256,863.9387 Q68.74451,863.9335 68.96019,863.8749 Q69.94826,863.6118 70.4682,863.4766 Q70.47222,863.4756 71.81361,863.1372 Q71.82255,863.135 78.86473,861.5873 Q79.04102,861.5532 80.27135,861.321 Q80.32384,861.3113 87.0664,860.2184 Q87.06672,860.2184 134.7215,860.1502 Q141.4749,861.3253 141.6921,861.3694 Q145.2756,862.1613 145.2791,862.1621 Q146.4736,862.4542 146.4763,862.4548 Q147.0306,862.5955 147.1475,862.6255 Q147.504,862.7182 147.9091,862.8251 Q148.0671,862.8673 148.3519,862.9441 Q149.2442,863.1907 149.3718,863.2267 Q150.829,863.6521 150.8313,863.6527 Q151.6141,863.8922 152.3932,864.1385 Q152.6602,864.2249 152.7665,864.2595 Q156.842,865.7155 156.8584,865.7218 Q157.4133,865.9414 158.6353,866.4452 Q159.4455,866.7955 159.4989,866.8191 Q159.6751,866.8974 159.6766,866.8981 Q159.6629,866.8918 94.6169,859.3281 Q89.08038,859.9475 88.99307,859.9587 Q88.20275,860.0625 88.19054,860.0641 Q85.63871,860.4255 84.74207,860.5622 Q82.87272,860.8635 82.65897,860.8994 Q76.1935,862.1311 76.16316,862.1376 Q75.24459,862.3367 75.17945,862.3511 Q71.69289,863.1671 71.19872,863.2904 Q69.73656,863.6674 69.63713,863.6937 Q69.31761,863.7787 68.76628,863.9276 Q68.45626,864.0123 68.40291,864.027 Q63.1257,865.6109 62.97468,865.6603 Q62.27695,865.8916 61.99786,865.9856 Q58.92684,867.0787 58.86337,867.1025 Q57.9331,867.457 57.20927,867.7407 Q56.79594,867.9059 56.32127,868.0985 Q56.09893,868.1898 55.34001,868.507 Q55.14813,868.5885 54.89526,868.6968 Q54.7612,868.7546 54.53961,868.8508 Q53.75058,869.1997 53.27692,869.4141 Q51.57739,870.2155 51.4919,870.2572 Q51.05318,870.4735 50.97663,870.5117 Q50.97662,870.5117 153.4883,205.0234 Q153.4804,205.0392 153.4608,205.0784"/>



</svg>