<svg width="1024" height="1024">

	<path d="M236.1584,878.4202 Q236.8486,877.8089 237.414,877.3096 Q237.4602,877.2687 238.3475,876.4874 Q240.3702,874.7157 242.7868,872.6148 Q246.7186,869.2278 248.9812,867.2936 Q251.9772,864.7465 253.9906,863.0425 Q261.2025,856.9802 261.4673,856.7587 Q262.1409,856.1953 263.6162,854.9627 Q265.7099,853.2164 266.1605,852.8409 Q272.6625,847.4363 280.5804,840.8785 Q278.5646,841.8037 273.3115,844.2357 Q266.8619,847.2632 265.3411,847.9837 Q265.1623,848.0686 261.6467,849.7448 Q260.2775,850.4014 256.4454,852.2499 Q255.0765,852.9141 253.1397,853.8575 Q244.3341,858.199 242.2749,859.2267 Q234.4215,863.1887 232.8116,864.0093 Q223.2713,868.9301 221.5976,869.8035 Q220.0947,870.5904 206.2463,877.9545 Q202.3387,880.0689 200.3919,881.1283 Q195.7961,883.6444 195.4474,883.8363 Q192.7628,885.317 191.6478,885.9341 Q187.1803,888.4192 185.2138,889.5194 Q181.2514,891.7477 179.5962,892.6831 Q177.1226,894.0858 176.2662,894.5728 Q172.4155,897.7438 169.3732,900.2344 Q168.0103,901.3461 165.0269,903.7703 Q143.7395,920.7308 143.0555,921.2687 Q143.0428,921.2787 134.7075,927.8492 Q168.6953,911.1378 172.7006,909.1755 Q179.014,906.0865 198.7458,896.4698 Q203.4273,894.1974 205.1913,893.342 Q213.8802,889.1371 220.035,886.167 Q227.1498,882.7424 232.1587,880.3372 Q232.6913,880.0818 236.1585,878.4201"/>



</svg>